<svg xmlns="http://www.w3.org/2000/svg" width="31" height="23" shape-rendering="crispEdges"><path d="M0 11v7h1v2h1v1h1v1h2v1h7v-1h2v-1h1v-1h1v-2h1v-7h-1V9h-1V8h-1V7h-2V6h-1V4H9V2h1V1h5v1h2v2h1v2h1v3h1v2h1v1h1v1h3v-1h-3v-1h-1V9h-1V6h-1V4h-1V2h-1V1h-2V0h-5v1H9v1H8v2H6v2H5v1H3v1H2v1H1v2"/><path d="M22 7h1v1h-1zm1 2h1v1h-1zm1 1h1v1h-1zm-3 7h1v1h-1zm1-1h1v1h-1zm1-2h1v1h-1zm2 1h1v1h-1zm0 2h1v1h-1zm0 2h1v1h-1zm1-11h1v1h-1zm0 4h1v1h-1zm1-2h1v1h-1zm0 4h1v1h-1zm1-2h1v1h-1zm0 3h1v1h-1zm1-7h1v1h-1zm1-1h1v1h-1zm0 5h1v1h-1zm0 5h1v1h-1z"/></svg>